<svg width="100%" viewBox="0 0 740 760" xmlns="http://www.w3.org/2000/svg">
<defs>
  <!-- Arrowhead -->
  <marker id="arr" viewBox="0 0 10 10" refX="8" refY="5" markerWidth="5" markerHeight="5" orient="auto-start-reverse">
    <path d="M2 1L8 5L2 9" fill="none" stroke="context-stroke" stroke-width="1.8" stroke-linecap="round" stroke-linejoin="round"/>
  </marker>

  <!-- Gradients -->
  <linearGradient id="grad-gateway" x1="0" y1="0" x2="0" y2="1">
    <stop offset="0%" stop-color="#0a6652"/>
    <stop offset="100%" stop-color="#064535"/>
  </linearGradient>
  <linearGradient id="grad-waf" x1="0" y1="0" x2="0" y2="1">
    <stop offset="0%" stop-color="#0d6b56"/>
    <stop offset="100%" stop-color="#074a3b"/>
  </linearGradient>
  <linearGradient id="grad-app" x1="0" y1="0" x2="0" y2="1">
    <stop offset="0%" stop-color="#44399e"/>
    <stop offset="100%" stop-color="#2d2475"/>
  </linearGradient>
  <linearGradient id="grad-box-fe" x1="0" y1="0" x2="1" y2="1">
    <stop offset="0%" stop-color="#4a3faa"/>
    <stop offset="100%" stop-color="#352d88"/>
  </linearGradient>
  <linearGradient id="grad-box-be" x1="0" y1="0" x2="1" y2="1">
    <stop offset="0%" stop-color="#4a3faa"/>
    <stop offset="100%" stop-color="#352d88"/>
  </linearGradient>
  <linearGradient id="grad-data" x1="0" y1="0" x2="0" y2="1">
    <stop offset="0%" stop-color="#7d2f14"/>
    <stop offset="100%" stop-color="#5a2010"/>
  </linearGradient>
  <linearGradient id="grad-monitor" x1="0" y1="0" x2="0" y2="1">
    <stop offset="0%" stop-color="#7a4408"/>
    <stop offset="100%" stop-color="#542f05"/>
  </linearGradient>
  <linearGradient id="grad-vnet" x1="0" y1="0" x2="0" y2="1">
    <stop offset="0%" stop-color="#0e4f8e"/>
    <stop offset="100%" stop-color="#083668"/>
  </linearGradient>
  <linearGradient id="grad-internet" x1="0" y1="0" x2="0" y2="1">
    <stop offset="0%" stop-color="#525250"/>
    <stop offset="100%" stop-color="#363634"/>
  </linearGradient>

  <!-- Drop shadow filter -->
  <filter id="shadow" x="-5%" y="-5%" width="110%" height="120%">
    <feDropShadow dx="0" dy="2" stdDeviation="3" flood-color="#000" flood-opacity="0.35"/>
  </filter>
  <filter id="shadow-sm" x="-5%" y="-5%" width="110%" height="115%">
    <feDropShadow dx="0" dy="1" stdDeviation="2" flood-color="#000" flood-opacity="0.25"/>
  </filter>
</defs>

<!-- ═══════════════════════════════════════════ TITLE ══ -->
<text x="370" y="20" text-anchor="middle" font-family="'Segoe UI',sans-serif" font-size="16" font-weight="700" fill="#e8e6d9" letter-spacing="0.3">Azure 3-Tier Architecture</text>
<text x="370" y="36" text-anchor="middle" font-family="'Segoe UI',sans-serif" font-size="10" fill="#7c7a72" letter-spacing="0.8">IRONHACK  ·  WEEK 6  ·  GROUP 2</text>

<!-- ══════════════════════════ INTERNET / USERS ════════ -->
<rect x="265" y="46" width="210" height="48" rx="12" fill="url(#grad-internet)" stroke="#b4b2a9" stroke-width="0.8" filter="url(#shadow-sm)"/>
<!-- Globe SVG icon -->
<g transform="translate(281,58)">
  <circle cx="9" cy="9" r="8.5" fill="none" stroke="#9cdcfe" stroke-width="1.3"/>
  <ellipse cx="9" cy="9" rx="4.5" ry="8.5" fill="none" stroke="#9cdcfe" stroke-width="1"/>
  <line x1="0.5" y1="9" x2="17.5" y2="9" stroke="#9cdcfe" stroke-width="1"/>
  <line x1="2" y1="4.5" x2="16" y2="4.5" stroke="#9cdcfe" stroke-width="0.7"/>
  <line x1="2" y1="13.5" x2="16" y2="13.5" stroke="#9cdcfe" stroke-width="0.7"/>
</g>
<text x="370" y="63" text-anchor="middle" dominant-baseline="central" font-family="'Segoe UI',sans-serif" font-size="13" font-weight="600" fill="#d3d1c7">Internet / Users</text>
<text x="370" y="79" text-anchor="middle" dominant-baseline="central" font-family="'Segoe UI',sans-serif" font-size="10" fill="#9c9a92">HTTPS · port 80 / 443</text>

<!-- Arrow internet → gateway -->
<line x1="370" y1="94" x2="370" y2="118" marker-end="url(#arr)" stroke="#6a6a66" stroke-width="1.5"/>
<rect x="378" y="99" width="64" height="14" rx="3" fill="#1a1a18" opacity="0.7"/>
<text x="410" y="106" text-anchor="middle" dominant-baseline="central" font-family="'Segoe UI',sans-serif" font-size="9" fill="#9c9a92">port 80/443</text>

<!-- ══════════════════════════════ VNET OUTER ══════════ -->
<rect x="14" y="110" width="712" height="596" rx="18" fill="url(#grad-vnet)" stroke="#5a9fd4" stroke-width="1" filter="url(#shadow)"/>

<!-- VNet label -->
<g transform="translate(24,122)">
  <!-- Azure VNet icon -->
  <rect x="0" y="0" width="18" height="18" rx="4" fill="#0078d4"/>
  <path d="M9 3 C5 3 3 5.5 3 9 C3 12.5 5.5 15 9 15 C12.5 15 15 12.5 15 9 C15 5.5 12.5 3 9 3Z" fill="none" stroke="white" stroke-width="1.1"/>
  <line x1="3" y1="9" x2="15" y2="9" stroke="white" stroke-width="0.9"/>
  <line x1="9" y1="3" x2="9" y2="15" stroke="white" stroke-width="0.9"/>
</g>
<text x="48" y="131" dominant-baseline="central" font-family="'Segoe UI',sans-serif" font-size="12" font-weight="600" fill="#7ab8ed">Azure Virtual Network</text>
<text x="48" y="146" dominant-baseline="central" font-family="'Segoe UI',sans-serif" font-size="10" fill="#4a88c0">10.0.0.0 / 16</text>

<!-- ════════════════════ SUBNET GATEWAY (green) ════════ -->
<rect x="28" y="154" width="668" height="120" rx="12" fill="url(#grad-gateway)" stroke="#3dbf95" stroke-width="0.8" filter="url(#shadow-sm)"/>
<!-- Subnet label row -->
<g transform="translate(36,162)">
  <!-- NSG shield -->
  <path d="M8 0 L16 3.5 L16 10 Q16 16 8 18 Q0 16 0 10 L0 3.5 Z" fill="#3dbf95" opacity="0.2"/>
  <path d="M8 0 L16 3.5 L16 10 Q16 16 8 18 Q0 16 0 10 L0 3.5 Z" fill="none" stroke="#3dbf95" stroke-width="1.1"/>
  <text x="8" y="11" text-anchor="middle" font-size="6.5" fill="#3dbf95" font-weight="700">NSG</text>
</g>
<text x="60" y="172" dominant-baseline="central" font-family="'Segoe UI',sans-serif" font-size="10.5" fill="#3dbf95" font-weight="500">snet-gateway · 10.0.0.0/24</text>
<text x="60" y="187" dominant-baseline="central" font-family="'Segoe UI',sans-serif" font-size="9.5" fill="#2a9a75">NSG: allow 80, 443, 65200–65535 inbound</text>

<!-- App Gateway WAF box -->
<rect x="150" y="198" width="420" height="64" rx="10" fill="url(#grad-waf)" stroke="#3dbf95" stroke-width="1" filter="url(#shadow-sm)"/>
<!-- App Gateway icon -->
<g transform="translate(164,208)">
  <rect x="0" y="0" width="26" height="26" rx="6" fill="#0078d4"/>
  <path d="M13 3 L22 6.5 L22 15 Q22 22 13 24 Q4 22 4 15 L4 6.5 Z" fill="none" stroke="white" stroke-width="1.3"/>
  <text x="13" y="16" text-anchor="middle" font-size="8" fill="white" font-weight="700">WAF</text>
</g>
<text x="370" y="219" text-anchor="middle" dominant-baseline="central" font-family="'Segoe UI',sans-serif" font-size="13.5" font-weight="700" fill="#a8e8d0">Application Gateway WAF v2</text>
<text x="370" y="237" text-anchor="middle" dominant-baseline="central" font-family="'Segoe UI',sans-serif" font-size="10.5" fill="#4abf95">pip-appgw · 20.42.155.71</text>
<text x="370" y="251" text-anchor="middle" dominant-baseline="central" font-family="'Segoe UI',sans-serif" font-size="10" fill="#3dbf95">WAF Policy: Prevention Mode · SSL termination</text>
<!-- Azure badge -->
<rect x="524" y="206" width="38" height="18" rx="4" fill="#0078d4" opacity="0.35"/>
<text x="543" y="215" text-anchor="middle" dominant-baseline="central" font-family="'Segoe UI',sans-serif" font-size="8.5" fill="#9cdcfe" font-weight="600">Azure</text>

<!-- Routing arrows gateway → app tier -->
<path d="M280 262 L215 282 L215 302" fill="none" stroke="#3dbf95" stroke-width="1.5" marker-end="url(#arr)" stroke-dasharray="5,3"/>
<path d="M460 262 L525 282 L525 302" fill="none" stroke="#3dbf95" stroke-width="1.5" marker-end="url(#arr)" stroke-dasharray="5,3"/>
<rect x="174" y="277" width="26" height="14" rx="3" fill="#064535"/>
<text x="187" y="284" text-anchor="middle" dominant-baseline="central" font-family="'Segoe UI',sans-serif" font-size="9" fill="#9fe1cb" font-weight="600">/</text>
<rect x="534" y="277" width="44" height="14" rx="3" fill="#064535"/>
<text x="556" y="284" text-anchor="middle" dominant-baseline="central" font-family="'Segoe UI',sans-serif" font-size="9" fill="#9fe1cb" font-weight="600">/api/*</text>

<!-- ════════════════ SUBNET APP SERVICE (purple) ═══════ -->
<rect x="28" y="290" width="668" height="182" rx="12" fill="url(#grad-app)" stroke="#8f88d8" stroke-width="0.8" filter="url(#shadow-sm)"/>
<!-- Subnet label -->
<g transform="translate(36,298)">
  <path d="M8 0 L16 3.5 L16 10 Q16 16 8 18 Q0 16 0 10 L0 3.5 Z" fill="#8f88d8" opacity="0.2"/>
  <path d="M8 0 L16 3.5 L16 10 Q16 16 8 18 Q0 16 0 10 L0 3.5 Z" fill="none" stroke="#8f88d8" stroke-width="1.1"/>
  <text x="8" y="11" text-anchor="middle" font-size="6.5" fill="#8f88d8" font-weight="700">NSG</text>
</g>
<text x="60" y="308" dominant-baseline="central" font-family="'Segoe UI',sans-serif" font-size="10.5" fill="#8f88d8" font-weight="500">snet-appservice · 10.0.3.0/24</text>
<text x="60" y="323" dominant-baseline="central" font-family="'Segoe UI',sans-serif" font-size="9.5" fill="#6a62b0">delegation: Microsoft.Web/serverFarms · NSG: allow from gateway only</text>

<!-- ── FRONTEND box ── -->
<rect x="44" y="332" width="316" height="126" rx="10" fill="url(#grad-box-fe)" stroke="#afa9ec" stroke-width="1" filter="url(#shadow-sm)"/>
<!-- App Service icon -->
<g transform="translate(56,342)">
  <rect x="0" y="0" width="26" height="26" rx="6" fill="#0078d4"/>
  <rect x="4" y="4" width="18" height="18" rx="3" fill="none" stroke="white" stroke-width="1"/>
  <line x1="7" y1="9" x2="19" y2="9" stroke="white" stroke-width="1.1"/>
  <line x1="7" y1="13" x2="19" y2="13" stroke="white" stroke-width="1.1"/>
  <line x1="7" y1="17" x2="14" y2="17" stroke="white" stroke-width="1.1"/>
</g>
<text x="202" y="351" text-anchor="middle" dominant-baseline="central" font-family="'Segoe UI',sans-serif" font-size="14" font-weight="700" fill="#d8d5f8">Frontend</text>
<!-- React logo -->
<g transform="translate(58,380)">
  <ellipse cx="16" cy="14" rx="14" ry="5.5" fill="none" stroke="#61dafb" stroke-width="1.5"/>
  <ellipse cx="16" cy="14" rx="14" ry="5.5" fill="none" stroke="#61dafb" stroke-width="1.5" transform="rotate(60 16 14)"/>
  <ellipse cx="16" cy="14" rx="14" ry="5.5" fill="none" stroke="#61dafb" stroke-width="1.5" transform="rotate(-60 16 14)"/>
  <circle cx="16" cy="14" r="3" fill="#61dafb"/>
</g>
<text x="92" y="382" dominant-baseline="central" font-family="'Segoe UI',sans-serif" font-size="11.5" fill="#61dafb" font-weight="600">React</text>
<text x="92" y="397" dominant-baseline="central" font-family="'Segoe UI',sans-serif" font-size="10" fill="#9e98da">App Service (Linux)</text>
<text x="92" y="412" dominant-baseline="central" font-family="'Segoe UI',sans-serif" font-size="10" fill="#9e98da">Public access: disabled</text>
<text x="92" y="427" dominant-baseline="central" font-family="'Segoe UI',sans-serif" font-size="10" fill="#9e98da">App Insights · Autoscale ✓</text>

<!-- ── BACKEND box ── -->
<rect x="380" y="332" width="316" height="126" rx="10" fill="url(#grad-box-be)" stroke="#afa9ec" stroke-width="1" filter="url(#shadow-sm)"/>
<!-- App Service icon -->
<g transform="translate(392,342)">
  <rect x="0" y="0" width="26" height="26" rx="6" fill="#0078d4"/>
  <rect x="4" y="4" width="18" height="18" rx="3" fill="none" stroke="white" stroke-width="1"/>
  <line x1="7" y1="9" x2="19" y2="9" stroke="white" stroke-width="1.1"/>
  <line x1="7" y1="13" x2="19" y2="13" stroke="white" stroke-width="1.1"/>
  <line x1="7" y1="17" x2="14" y2="17" stroke="white" stroke-width="1.1"/>
</g>
<text x="538" y="351" text-anchor="middle" dominant-baseline="central" font-family="'Segoe UI',sans-serif" font-size="14" font-weight="700" fill="#d8d5f8">Backend (API)</text>
<!-- Node.js hexagon -->
<g transform="translate(394,376)">
  <polygon points="16,2 28,9 28,23 16,30 4,23 4,9" fill="none" stroke="#83cd29" stroke-width="1.5"/>
  <text x="16" y="17" text-anchor="middle" dominant-baseline="central" font-size="8.5" fill="#83cd29" font-weight="700">JS</text>
</g>
<text x="430" y="382" dominant-baseline="central" font-family="'Segoe UI',sans-serif" font-size="11.5" fill="#83cd29" font-weight="600">Node.js / Express</text>
<text x="430" y="397" dominant-baseline="central" font-family="'Segoe UI',sans-serif" font-size="10" fill="#9e98da">App Service (Linux)</text>
<text x="430" y="412" dominant-baseline="central" font-family="'Segoe UI',sans-serif" font-size="10" fill="#9e98da">Public access: disabled</text>
<text x="430" y="427" dominant-baseline="central" font-family="'Segoe UI',sans-serif" font-size="10" fill="#9e98da">App Insights · Autoscale ✓</text>

<!-- Arrows app → data -->
<line x1="202" y1="458" x2="202" y2="482" marker-end="url(#arr)" stroke="#7a74c2" stroke-width="1.5"/>
<line x1="538" y1="458" x2="538" y2="482" marker-end="url(#arr)" stroke="#7a74c2" stroke-width="1.5"/>

<!-- ════════════════════ SUBNET DATA (red-orange) ══════ -->
<rect x="28" y="472" width="668" height="210" rx="12" fill="url(#grad-data)" stroke="#d97a5a" stroke-width="0.8" filter="url(#shadow-sm)"/>
<!-- Subnet label -->
<g transform="translate(36,480)">
  <path d="M8 0 L16 3.5 L16 10 Q16 16 8 18 Q0 16 0 10 L0 3.5 Z" fill="#d97a5a" opacity="0.2"/>
  <path d="M8 0 L16 3.5 L16 10 Q16 16 8 18 Q0 16 0 10 L0 3.5 Z" fill="none" stroke="#d97a5a" stroke-width="1.1"/>
  <text x="8" y="11" text-anchor="middle" font-size="6.5" fill="#d97a5a" font-weight="700">NSG</text>
</g>
<text x="60" y="490" dominant-baseline="central" font-family="'Segoe UI',sans-serif" font-size="10.5" fill="#d97a5a" font-weight="500">snet-data · 10.0.2.0/24</text>
<text x="60" y="505" dominant-baseline="central" font-family="'Segoe UI',sans-serif" font-size="9.5" fill="#a85a3a">NSG: allow port 1433 from snet-appservice only</text>

<!-- ── Private DNS Zone box ── -->
<rect x="44" y="514" width="310" height="70" rx="10" fill="#5a2010" stroke="#d97a5a" stroke-width="0.9" filter="url(#shadow-sm)"/>
<!-- DNS globe icon -->
<g transform="translate(56,524)">
  <rect x="0" y="0" width="26" height="26" rx="6" fill="#0078d4"/>
  <circle cx="13" cy="13" r="8.5" fill="none" stroke="white" stroke-width="1"/>
  <ellipse cx="13" cy="13" rx="4" ry="8.5" fill="none" stroke="white" stroke-width="1"/>
  <line x1="4.5" y1="13" x2="21.5" y2="13" stroke="white" stroke-width="0.9"/>
  <line x1="7" y1="7.5" x2="19" y2="7.5" stroke="white" stroke-width="0.7"/>
  <line x1="7" y1="18.5" x2="19" y2="18.5" stroke="white" stroke-width="0.7"/>
</g>
<text x="199" y="534" text-anchor="middle" dominant-baseline="central" font-family="'Segoe UI',sans-serif" font-size="13" font-weight="700" fill="#f5c4b3">Private DNS Zone</text>
<text x="199" y="552" text-anchor="middle" dominant-baseline="central" font-family="'Segoe UI',sans-serif" font-size="10" fill="#c07060">privatelink.database.windows.net</text>
<text x="199" y="567" text-anchor="middle" dominant-baseline="central" font-family="'Segoe UI',sans-serif" font-size="9.5" fill="#a05040">Auto-registered · linked to VNet</text>

<!-- ── Azure SQL box ── -->
<rect x="376" y="514" width="310" height="70" rx="10" fill="#5a2010" stroke="#d97a5a" stroke-width="0.9" filter="url(#shadow-sm)"/>
<!-- Azure SQL cylinder icon -->
<g transform="translate(388,524)">
  <rect x="0" y="0" width="26" height="26" rx="6" fill="#0078d4"/>
  <!-- cylinder -->
  <ellipse cx="13" cy="6.5" rx="7" ry="2.5" fill="#9cdcfe" opacity="0.9"/>
  <rect x="6" y="6.5" width="14" height="13" fill="#0050a0"/>
  <ellipse cx="13" cy="19.5" rx="7" ry="2.5" fill="#9cdcfe" opacity="0.9"/>
  <line x1="6" y1="10.5" x2="20" y2="10.5" stroke="#9cdcfe" stroke-width="0.7" opacity="0.6"/>
  <line x1="6" y1="14.5" x2="20" y2="14.5" stroke="#9cdcfe" stroke-width="0.7" opacity="0.6"/>
</g>
<text x="531" y="534" text-anchor="middle" dominant-baseline="central" font-family="'Segoe UI',sans-serif" font-size="13" font-weight="700" fill="#f5c4b3">Azure SQL Database</text>
<text x="531" y="552" text-anchor="middle" dominant-baseline="central" font-family="'Segoe UI',sans-serif" font-size="10" fill="#c07060">Public access: disabled · Private Endpoint only</text>
<text x="531" y="567" text-anchor="middle" dominant-baseline="central" font-family="'Segoe UI',sans-serif" font-size="9.5" fill="#a05040">SQL Server · General Purpose · Geo-redundant</text>

<!-- ── Private Endpoint full-width box ── -->
<rect x="44" y="598" width="660" height="72" rx="10" fill="#5a2010" stroke="#d97a5a" stroke-width="0.9" filter="url(#shadow-sm)"/>
<!-- Private link icon -->
<g transform="translate(58,610)">
  <rect x="0" y="0" width="26" height="26" rx="6" fill="#712b13"/>
  <!-- lock body -->
  <rect x="6" y="13" width="14" height="10" rx="2" fill="#f09977"/>
  <!-- lock shackle -->
  <path d="M9 13 L9 9 Q13 4 17 9 L17 13" fill="none" stroke="#f09977" stroke-width="2" stroke-linecap="round"/>
  <circle cx="13" cy="18" r="2" fill="#712b13"/>
</g>
<text x="370" y="617" text-anchor="middle" dominant-baseline="central" font-family="'Segoe UI',sans-serif" font-size="13" font-weight="700" fill="#f5c4b3">Private Endpoint</text>
<text x="370" y="635" text-anchor="middle" dominant-baseline="central" font-family="'Segoe UI',sans-serif" font-size="10.5" fill="#d97a5a">NIC in snet-data · private IP 10.0.2.x · only path to Azure SQL · port 1433</text>
<text x="370" y="651" text-anchor="middle" dominant-baseline="central" font-family="'Segoe UI',sans-serif" font-size="9.5" fill="#a05040">No public internet route · traffic stays within VNet at all times</text>

<!-- ═════════════════════ MONITORING (amber) ═══════════ -->
<rect x="28" y="692" width="668" height="72" rx="12" fill="url(#grad-monitor)" stroke="#d4891a" stroke-width="0.9" filter="url(#shadow-sm)"/>
<!-- Azure Monitor icon -->
<g transform="translate(40,702)">
  <rect x="0" y="0" width="26" height="26" rx="6" fill="#d4891a" opacity="0.85"/>
  <polyline points="3,13 6,13 8,6 10,20 12,9 14,16 16,13 23,13" fill="none" stroke="white" stroke-width="1.5" stroke-linejoin="round" stroke-linecap="round"/>
</g>
<!-- App Insights icon -->
<g transform="translate(74,702)">
  <rect x="0" y="0" width="26" height="26" rx="6" fill="#68217a" opacity="0.9"/>
  <path d="M4 20 Q13 5 22 20" fill="none" stroke="#e040fb" stroke-width="1.7"/>
  <circle cx="13" cy="10" r="3.5" fill="#e040fb"/>
</g>
<!-- Log Analytics icon -->
<g transform="translate(108,702)">
  <rect x="0" y="0" width="26" height="26" rx="6" fill="#0078d4" opacity="0.85"/>
  <line x1="4" y1="7" x2="22" y2="7" stroke="white" stroke-width="1.3"/>
  <line x1="4" y1="13" x2="17" y2="13" stroke="white" stroke-width="1.3"/>
  <line x1="4" y1="19" x2="20" y2="19" stroke="white" stroke-width="1.3"/>
</g>
<text x="370" y="710" text-anchor="middle" dominant-baseline="central" font-family="'Segoe UI',sans-serif" font-size="13" font-weight="700" fill="#fcd080">Monitoring &amp; Observability</text>
<text x="370" y="728" text-anchor="middle" dominant-baseline="central" font-family="'Segoe UI',sans-serif" font-size="10.5" fill="#d4891a">Log Analytics Workspace · App Insights ×2 · 3 Alert Rules · Action Group (email)</text>
<text x="370" y="744" text-anchor="middle" dominant-baseline="central" font-family="'Segoe UI',sans-serif" font-size="9.5" fill="#a06010">Azure Monitor · Diagnostic Settings · KQL · Metric Alerts</text>

<!-- ════════════════════════════ LEGEND ════════════════ -->
<g transform="translate(28,778)">
  <!-- VNet -->
  <rect x="0" y="0" width="12" height="12" rx="2" fill="#0e4f8e" stroke="#5a9fd4" stroke-width="0.7"/>
  <text x="16" y="6" dominant-baseline="central" font-family="'Segoe UI',sans-serif" font-size="10" fill="#b0aead">VNet</text>
  <!-- Gateway -->
  <rect x="70" y="0" width="12" height="12" rx="2" fill="#0a6652" stroke="#3dbf95" stroke-width="0.7"/>
  <text x="86" y="6" dominant-baseline="central" font-family="'Segoe UI',sans-serif" font-size="10" fill="#b0aead">Gateway</text>
  <!-- App -->
  <rect x="158" y="0" width="12" height="12" rx="2" fill="#44399e" stroke="#8f88d8" stroke-width="0.7"/>
  <text x="174" y="6" dominant-baseline="central" font-family="'Segoe UI',sans-serif" font-size="10" fill="#b0aead">App tier</text>
  <!-- Data -->
  <rect x="240" y="0" width="12" height="12" rx="2" fill="#7d2f14" stroke="#d97a5a" stroke-width="0.7"/>
  <text x="256" y="6" dominant-baseline="central" font-family="'Segoe UI',sans-serif" font-size="10" fill="#b0aead">Data tier</text>
  <!-- Monitor -->
  <rect x="322" y="0" width="12" height="12" rx="2" fill="#7a4408" stroke="#d4891a" stroke-width="0.7"/>
  <text x="338" y="6" dominant-baseline="central" font-family="'Segoe UI',sans-serif" font-size="10" fill="#b0aead">Monitoring</text>
  <!-- Tech stack -->
  <text x="430" y="6" dominant-baseline="central" font-family="'Segoe UI',sans-serif" font-size="10" fill="#b0aead">Stack:</text>
  <text x="460" y="6" dominant-baseline="central" font-family="'Segoe UI',sans-serif" font-size="10" fill="#61dafb">React</text>
  <text x="503" y="6" dominant-baseline="central" font-family="'Segoe UI',sans-serif" font-size="10" fill="#7a7a75">·</text>
  <text x="511" y="6" dominant-baseline="central" font-family="'Segoe UI',sans-serif" font-size="10" fill="#83cd29">Node.js</text>
  <text x="560" y="6" dominant-baseline="central" font-family="'Segoe UI',sans-serif" font-size="10" fill="#7a7a75">·</text>
  <text x="568" y="6" dominant-baseline="central" font-family="'Segoe UI',sans-serif" font-size="10" fill="#9cdcfe">Azure SQL</text>
</g>

</svg>
